/* XPM */
static char * C:\Users\CJ\Downloads\waltercoin\bitcoin32_xpm[] = {
"32 32 99 2",
"  	c None",
". 	c #CF7581",
"+ 	c #CD7381",
"@ 	c #D27483",
"# 	c #D57584",
"$ 	c #D37583",
"% 	c #CF7482",
"& 	c #CF7481",
"* 	c #D17482",
"= 	c #D17483",
"- 	c #D37483",
"; 	c #D67786",
"> 	c #E7B9BF",
", 	c #F2DCDF",
"' 	c #EFD1D5",
") 	c #DD949E",
"! 	c #DFA0A8",
"~ 	c #FAF1F2",
"{ 	c #FFFFFF",
"] 	c #FFFEFE",
"^ 	c #F5E4E6",
"/ 	c #D8818E",
"( 	c #D67A88",
"_ 	c #EBC6CA",
": 	c #FDF8F9",
"< 	c #FEFBFB",
"[ 	c #EFD7DA",
"} 	c #D98894",
"| 	c #CD7582",
"1 	c #D77C8A",
"2 	c #F1D9DC",
"3 	c #F2DADD",
"4 	c #D07583",
"5 	c #D67B89",
"6 	c #F5E4E7",
"7 	c #FCF7F8",
"8 	c #DA8C97",
"9 	c #CB7380",
"0 	c #EFD3D6",
"a 	c #E9C2C7",
"b 	c #D17583",
"c 	c #DE9AA3",
"d 	c #EBC6CB",
"e 	c #EDCDD0",
"f 	c #F8ECEE",
"g 	c #D57483",
"h 	c #D17582",
"i 	c #CA7582",
"j 	c #D57685",
"k 	c #F9EEEF",
"l 	c #CF7582",
"m 	c #CD7380",
"n 	c #D98793",
"o 	c #DF9DA6",
"p 	c #FEFBFC",
"q 	c #E0A3AC",
"r 	c #D8838F",
"s 	c #E1A4AC",
"t 	c #FCF7F7",
"u 	c #D67987",
"v 	c #ECC9CD",
"w 	c #F1D8DB",
"x 	c #FAF2F3",
"y 	c #CA7380",
"z 	c #E3ACB3",
"A 	c #F9EEF0",
"B 	c #D88894",
"C 	c #D27682",
"D 	c #D47584",
"E 	c #E9BFC4",
"F 	c #FCF6F7",
"G 	c #DE9AA4",
"H 	c #CC7581",
"I 	c #D8828F",
"J 	c #D17584",
"K 	c #E8BFC4",
"L 	c #EAC3C8",
"M 	c #CE7583",
"N 	c #DD98A1",
"O 	c #EED0D4",
"P 	c #DB8D98",
"Q 	c #E2ACB3",
"R 	c #F2DBDE",
"S 	c #D57785",
"T 	c #D47583",
"U 	c #E7BABF",
"V 	c #F6E6E8",
"W 	c #EED1D5",
"X 	c #DB8F9A",
"Y 	c #EBC7CB",
"Z 	c #FAF0F1",
"` 	c #DF9EA7",
" .	c #DF9FA8",
"..	c #FDFAFB",
"+.	c #CE7482",
"@.	c #D67A89",
"#.	c #DE9DA6",
"$.	c #D37584",
"%.	c #D07483",
"                      . + @ # # # # $ % &                       ",
"                  + # # # # # # # # # # # # %                   ",
"              + # # # # # # # # # # # # # # # # *               ",
"            = # # # # # # # # # # # # # # # # # # $             ",
"          - # # # # # # # # ; > , ' ) # # # # # # # #           ",
"        @ # # # # # # # # ! ~ { { { ] ^ > / # # # # # #         ",
"      * # # # # # # # ( _ : { { { { { { { < [ } # # # # $       ",
"    | # # # # # # # 1 2 { { { { { { { { { { { 3 # # # # # 4     ",
"    # # # # # # # 5 6 { { { { { { { { { { { { 7 8 # # # # #     ",
"  9 # # # # # # # 0 { { { { { { { { { { { { { { a # # # # # b   ",
"  $ # # # # # # c ] { { { { { { { { { { { { { { d # # # # # #   ",
"  # # # # # # # e { { { { { { { { { { { { { { { f g # # # # # h ",
"i # # # # # # j k { { { { { { { { { { { { { { { k g # # # # # l ",
"m # # # # # # n { { { { { { { { { { { { { { { { 7 # # # # # # $ ",
"@ # # # # # # o { { { { { { { { { { { { { { { { p ( # # # # # # ",
"# # # # # # # q { { { { { { { { { { { { { { { { ] r # # # # # # ",
"# # # # # # # s { { { { { { { { { { { { { { { { t u # # # # # # ",
"@ # # # # # # v { { { { { { { { { { { { { { { { w # # # # # # # ",
"m # # # # # ; x { { { { { { { { { { { { { { { ] o # # # # # # $ ",
"y # # # # # z { { { { { { { { { { { { { { { { 2 # # # # # # # l ",
"  # # # # u A { { { { { { { { { { { { { { { 7 B # # # # # # # C ",
"  D # # # E { { { { { { { { { { { { { { { F G # # # # # # # #   ",
"  H # # I : { { { { { { { { { { { { { { F G # # # # # # # # J   ",
"    # # K { { { { { { { { { { { { { { { L # # # # # # # # #     ",
"    M # N O F { { { { { { { { { { { { { P # # # # # # # # b     ",
"      * # # u Q R p { { { { { { { { { ~ S # # # # # # # T       ",
"        - # # # # I U V { { { { { { { W # # # # # # # #         ",
"          $ # # # # # # X Y Z { { { { ` # # # # # # #           ",
"            = # # # # # # # #  .0 7 ..u # # # # # T             ",
"              +.# # # # # # # # # @.#.# # # # # =               ",
"                  % # # # # # # # # # # # # =                   ",
"                      h % $ # # # # $.%.C                       "};
