/* XPM */
static char * C:\Users\CJ\Downloads\waltercoin\bitcoin64_xpm[] = {
"64 64 155 2",
"  	c None",
". 	c #D47584",
"+ 	c #D57584",
"@ 	c #D37583",
"# 	c #D37584",
"$ 	c #D47583",
"% 	c #D8818E",
"& 	c #DD96A0",
"* 	c #DB8E99",
"= 	c #D57585",
"- 	c #E3ABB3",
"; 	c #F7E8EA",
"> 	c #FDFAFB",
", 	c #FFFEFE",
"' 	c #FEFCFC",
") 	c #F4DEE1",
"! 	c #E1A2AB",
"~ 	c #D77B89",
"{ 	c #D67786",
"] 	c #E3ABB2",
"^ 	c #F4E1E3",
"/ 	c #FEFCFD",
"( 	c #FFFFFF",
"_ 	c #F9ECED",
": 	c #E8BBC1",
"< 	c #D98793",
"[ 	c #D57483",
"} 	c #D67685",
"| 	c #EECED2",
"1 	c #FDFAFA",
"2 	c #F3DDDF",
"3 	c #E5B5BB",
"4 	c #D77C8A",
"5 	c #D67A88",
"6 	c #EDCACE",
"7 	c #FCF6F6",
"8 	c #EFD4D7",
"9 	c #DF9CA6",
"0 	c #D57786",
"a 	c #EFD1D5",
"b 	c #FAF1F2",
"c 	c #F5E5E7",
"d 	c #DC919C",
"e 	c #D27583",
"f 	c #EBC9CD",
"g 	c #F7E7E9",
"h 	c #D67987",
"i 	c #EECFD3",
"j 	c #E3AEB5",
"k 	c #D27483",
"l 	c #D8828F",
"m 	c #F6E4E6",
"n 	c #E9C5C9",
"o 	c #D57484",
"p 	c #F3DEE1",
"q 	c #FCF7F7",
"r 	c #DF9BA5",
"s 	c #D57685",
"t 	c #EFD0D4",
"u 	c #F0D4D8",
"v 	c #E4AEB5",
"w 	c #FEFDFD",
"x 	c #F8ECEE",
"y 	c #D17483",
"z 	c #D77F8C",
"A 	c #FAF0F2",
"B 	c #F6E6E8",
"C 	c #D37483",
"D 	c #E7B9BF",
"E 	c #F4DFE1",
"F 	c #E5B2B9",
"G 	c #D17583",
"H 	c #DA8A96",
"I 	c #ECC7CC",
"J 	c #E5B1B8",
"K 	c #E9BFC4",
"L 	c #F2DADD",
"M 	c #ECC9CE",
"N 	c #F0D4D7",
"O 	c #DC8E9A",
"P 	c #F5E3E5",
"Q 	c #DF9CA5",
"R 	c #F8E8EB",
"S 	c #E2ABB3",
"T 	c #E5B4BA",
"U 	c #F9EDEE",
"V 	c #E1A4AC",
"W 	c #FDF9F9",
"X 	c #D8808D",
"Y 	c #E0A1AA",
"Z 	c #F9EDEF",
"` 	c #EDCBD0",
" .	c #F1D6DA",
"..	c #E1A5AD",
"+.	c #DB8C98",
"@.	c #FDF9FA",
"#.	c #F9EFF0",
"$.	c #D77A89",
"%.	c #E9BDC3",
"&.	c #F7E6E8",
"*.	c #FBF1F3",
"=.	c #FEFBFC",
"-.	c #E7B8BE",
";.	c #F3DEE0",
">.	c #F6E7E9",
",.	c #D67887",
"'.	c #E4ACB4",
").	c #FEFBFB",
"!.	c #DC98A0",
"~.	c #D77E8B",
"{.	c #F8EAEC",
"].	c #ECC6CB",
"^.	c #EBC4C9",
"/.	c #FCF5F6",
"(.	c #E9BFC5",
"_.	c #DA8B96",
":.	c #EBC5C9",
"<.	c #EAC1C6",
"[.	c #D88390",
"}.	c #FCF5F5",
"|.	c #EECDD2",
"1.	c #E4AFB5",
"2.	c #F3DDE0",
"3.	c #FFFDFE",
"4.	c #D98692",
"5.	c #E8BDC2",
"6.	c #FEFAFB",
"7.	c #D57383",
"8.	c #DD959F",
"9.	c #ECCACE",
"0.	c #E0A2AB",
"a.	c #F0D5D8",
"b.	c #FDF8F8",
"c.	c #E9BEC4",
"d.	c #D77D8B",
"e.	c #F4E0E3",
"f.	c #DE99A3",
"g.	c #DA8B97",
"h.	c #E9C0C5",
"i.	c #F7EAEC",
"j.	c #F8EBED",
"k.	c #DD97A1",
"l.	c #EDCCD0",
"m.	c #FBF3F4",
"n.	c #E9C1C6",
"o.	c #E2A7AF",
"p.	c #F1D8DB",
"q.	c #FDF8F9",
"r.	c #DB8E9A",
"s.	c #E6B5BB",
"t.	c #EAC2C7",
"u.	c #FFFEFF",
"v.	c #F3DCDF",
"w.	c #DE9BA4",
"x.	c #DE98A2",
"                                                      . . . . + + + . . . +                                                     ",
"                                            @ # + + + + + + + + + + + + + + + + . .                                             ",
"                                        @ + + + + + + + + + + + + + + + + + + + + + + .                                         ",
"                                    . + + + + + + + + + + + + + + + + + + + + + + + + + + + .                                   ",
"                                @ + + + + + + + + + + + + + + + + + + + + + + + + + + + + + + .                                 ",
"                            # + + + + + + + + + + + + + + + + + + + + + + + + + + + + + + + + + + .                             ",
"                          $ + + + + + + + + + + + + + + + + + + + + + + + + + + + + + + + + + + + + +                           ",
"                        . + + + + + + + + + + + + + + + + + + + + + + + + + + + + + + + + + + + + + + + +                       ",
"                      + + + + + + + + + + + + + + + + + + + + + % & * + + + + + + + + + + + + + + + + + + +                     ",
"                  @ + + + + + + + + + + + + + + + + + + + = - ; > , ' ) ! ~ + + + + + + + + + + + + + + + + .                   ",
"                  + + + + + + + + + + + + + + + + + + { ] ^ / ( ( ( ( ( , _ : < [ + + + + + + + + + + + + + + +                 ",
"                + + + + + + + + + + + + + + + + + + } | , ( ( ( ( ( ( ( ( ( ( 1 2 3 4 + + + + + + + + + + + + + .               ",
"              . + + + + + + + + + + + + + + + + + 5 6 , ( ( ( ( ( ( ( ( ( ( ( ( ( ( 7 8 9 0 + + + + + + + + + + +               ",
"            @ + + + + + + + + + + + + + + + + 5 a b ( ( ( ( ( ( ( ( ( ( ( ( ( ( ( ( ( ( , c d + + + + + + + + + + +             ",
"          e + + + + + + + + + + + + + + + + } f ( ( ( ( ( ( ( ( ( ( ( ( ( ( ( ( ( ( ( ( ( ( g h + + + + + + + + + + .           ",
"          . + + + + + + + + + + + + + + + 4 i , ( ( ( ( ( ( ( ( ( ( ( ( ( ( ( ( ( ( ( ( ( ( ( j + + + + + + + + + + +           ",
"        k + + + + + + + + + + + + + + + l m ( ( ( ( ( ( ( ( ( ( ( ( ( ( ( ( ( ( ( ( ( ( ( ( ( n o + + + + + + + + + + .         ",
"        + + + + + + + + + + + + + + + 4 p ( ( ( ( ( ( ( ( ( ( ( ( ( ( ( ( ( ( ( ( ( ( ( ( ( ( q r + + + + + + + + + + + s       ",
"      k + + + + + + + + + + + + + + + t ( ( ( ( ( ( ( ( ( ( ( ( ( ( ( ( ( ( ( ( ( ( ( ( ( ( ( ( u + + + + + + + + + + + +       ",
"      + + + + + + + + + + + + + + + v w ( ( ( ( ( ( ( ( ( ( ( ( ( ( ( ( ( ( ( ( ( ( ( ( ( ( ( ( x } + + + + + + + + + + +       ",
"    y + + + + + + + + + + + + + + z A ( ( ( ( ( ( ( ( ( ( ( ( ( ( ( ( ( ( ( ( ( ( ( ( ( ( ( ( ( B s + + + + + + + + + + + .     ",
"    C + + + + + + + + + + + + + + D ( ( ( ( ( ( ( ( ( ( ( ( ( ( ( ( ( ( ( ( ( ( ( ( ( ( ( ( ( ( ; 5 + + + + + + + + + + + +     ",
"    + + + + + + + + + + + + + + [ E ( ( ( ( ( ( ( ( ( ( ( ( ( ( ( ( ( ( ( ( ( ( ( ( ( ( ( ( ( ( ( F + + + + + + + + + + + + +   ",
"  G + + + + + + + + + + + + + + H 1 ( ( ( ( ( ( ( ( ( ( ( ( ( ( ( ( ( ( ( ( ( ( ( ( ( ( ( ( ( ( ( I + + + + + + + + + + + + .   ",
"  k + + + + + + + + + + + + + + J ( ( ( ( ( ( ( ( ( ( ( ( ( ( ( ( ( ( ( ( ( ( ( ( ( ( ( ( ( ( ( ( K + + + + + + + + + + + + +   ",
"  . + + + + + + + + + + + + + + L ( ( ( ( ( ( ( ( ( ( ( ( ( ( ( ( ( ( ( ( ( ( ( ( ( ( ( ( ( ( ( ( M + + + + + + + + + + + + +   ",
"  + + + + + + + + + + + + + + { b ( ( ( ( ( ( ( ( ( ( ( ( ( ( ( ( ( ( ( ( ( ( ( ( ( ( ( ( ( ( ( ( N + + + + + + + + + + + + +   ",
"  + + + + + + + + + + + + + + O ' ( ( ( ( ( ( ( ( ( ( ( ( ( ( ( ( ( ( ( ( ( ( ( ( ( ( ( ( ( ( ( ( P [ + + + + + + + + + + + + . ",
"y + + + + + + + + + + + + + + Q ( ( ( ( ( ( ( ( ( ( ( ( ( ( ( ( ( ( ( ( ( ( ( ( ( ( ( ( ( ( ( ( ( R + + + + + + + + + + + + + . ",
"y + + + + + + + + + + + + + + S ( ( ( ( ( ( ( ( ( ( ( ( ( ( ( ( ( ( ( ( ( ( ( ( ( ( ( ( ( ( ( ( ( ; [ + + + + + + + + + + + + . ",
"G + + + + + + + + + + + + + + T ( ( ( ( ( ( ( ( ( ( ( ( ( ( ( ( ( ( ( ( ( ( ( ( ( ( ( ( ( ( ( ( ( U + + + + + + + + + + + + + . ",
"G + + + + + + + + + + + + + + V ( ( ( ( ( ( ( ( ( ( ( ( ( ( ( ( ( ( ( ( ( ( ( ( ( ( ( ( ( ( ( ( ( W X + + + + + + + + + + + + + ",
"G + + + + + + + + + + + + + + Y ( ( ( ( ( ( ( ( ( ( ( ( ( ( ( ( ( ( ( ( ( ( ( ( ( ( ( ( ( ( ( ( ( Z } + + + + + + + + + + + + + ",
"G + + + + + + + + + + + + + + : ( ( ( ( ( ( ( ( ( ( ( ( ( ( ( ( ( ( ( ( ( ( ( ( ( ( ( ( ( ( ( ( ( ` + + + + + + + + + + + + + . ",
"k + + + + + + + + + + + + + +  .( ( ( ( ( ( ( ( ( ( ( ( ( ( ( ( ( ( ( ( ( ( ( ( ( ( ( ( ( ( ( ( ( ..+ + + + + + + + + + + + + . ",
"y + + + + + + + + + + + + + +.@.( ( ( ( ( ( ( ( ( ( ( ( ( ( ( ( ( ( ( ( ( ( ( ( ( ( ( ( ( ( ( ( #.$.+ + + + + + + + + + + + + . ",
"  + + + + + + + + + + + + + %.( ( ( ( ( ( ( ( ( ( ( ( ( ( ( ( ( ( ( ( ( ( ( ( ( ( ( ( ( ( ( ( ( K + + + + + + + + + + + + + + . ",
"  + + + + + + + + + + + + s &.( ( ( ( ( ( ( ( ( ( ( ( ( ( ( ( ( ( ( ( ( ( ( ( ( ( ( ( ( ( ( ( *.l + + + + + + + + + + + + + +   ",
"  . + + + + + + + + + + + Q =.( ( ( ( ( ( ( ( ( ( ( ( ( ( ( ( ( ( ( ( ( ( ( ( ( ( ( ( ( ( ( , -.+ + + + + + + + + + + + + + +   ",
"  k + + + + + + + + + + s ;.( ( ( ( ( ( ( ( ( ( ( ( ( ( ( ( ( ( ( ( ( ( ( ( ( ( ( ( ( ( ( ( >.,.+ + + + + + + + + + + + + + +   ",
"  e + + + + + + + + + + '.w ( ( ( ( ( ( ( ( ( ( ( ( ( ( ( ( ( ( ( ( ( ( ( ( ( ( ( ( ( ( ( ).!.+ + + + + + + + + + + + + + + .   ",
"    + + + + + + + + + ~.{.( ( ( ( ( ( ( ( ( ( ( ( ( ( ( ( ( ( ( ( ( ( ( ( ( ( ( ( ( ( ( , ].+ + + + + + + + + + + + + + + + s   ",
"    @ + + + + + + + + : ( ( ( ( ( ( ( ( ( ( ( ( ( ( ( ( ( ( ( ( ( ( ( ( ( ( ( ( ( ( ( , ^.s + + + + + + + + + + + + + + + +     ",
"    e + + + + + + + H /.( ( ( ( ( ( ( ( ( ( ( ( ( ( ( ( ( ( ( ( ( ( ( ( ( ( ( ( ( ( w (.s + + + + + + + + + + + + + + + + .     ",
"      + + + + + + o N ( ( ( ( ( ( ( ( ( ( ( ( ( ( ( ( ( ( ( ( ( ( ( ( ( ( ( ( ( ( , I + + + + + + + + + + + + + + + + + +       ",
"      e + + + + + _.1 ( ( ( ( ( ( ( ( ( ( ( ( ( ( ( ( ( ( ( ( ( ( ( ( ( ( ( ( ( ( :.+ + + + + + + + + + + + + + + + + + +       ",
"        + + + + + <.( ( ( ( ( ( ( ( ( ( ( ( ( ( ( ( ( ( ( ( ( ( ( ( ( ( ( ( ( ( /.[.+ + + + + + + + + + + + + + + + + + s       ",
"        @ + + + $.}.( ( ( ( ( ( ( ( ( ( ( ( ( ( ( ( ( ( ( ( ( ( ( ( ( ( ( ( ( ( |.+ + + + + + + + + + + + + + + + + + +         ",
"          . + + s 1.2.=.( ( ( ( ( ( ( ( ( ( ( ( ( ( ( ( ( ( ( ( ( ( ( ( ( ( ( 3.9 + + + + + + + + + + + + + + + + + +           ",
"          # + + + + + 4.5.; w ( ( ( ( ( ( ( ( ( ( ( ( ( ( ( ( ( ( ( ( ( ( ( ( 6.[.+ + + + + + + + + + + + + + + + + +           ",
"            @ + + + + + + 7.8.9.b ( ( ( ( ( ( ( ( ( ( ( ( ( ( ( ( ( ( ( ( ( ( B 0 + + + + + + + + + + + + + + + + +             ",
"              . + + + + + + + + h 0.a.b.( ( ( ( ( ( ( ( ( ( ( ( ( ( ( ( ( ( ( c.+ + + + + + + + + + + + + + + + +               ",
"                + + + + + + + + + + + d.F e.).( ( ( ( ( ( ( ( ( ( ( ( ( ( ( , f.+ + + + + + + + + + + + + + + + +               ",
"                  + + + + + + + + + + + + 7.g.h.i., ( ( ( ( ( ( ( ( ( ( ( ( j.[ + + + + + + + + + + + + + + + +                 ",
"                  . + + + + + + + + + + + + + + s k.l.m.( ( ( ( ( ( ( ( ( ( n.+ + + + + + + + + + + + + + + +                   ",
"                      + + + + + + + + + + + + + + + + { o.p.q.( ( ( ( ( ( 3.r.+ + + + + + + + + + + + + + +                     ",
"                        . + + + + + + + + + + + + + + + + [ % s.P / ( ( ( W ~.+ + + + + + + + + + + + + +                       ",
"                          . + + + + + + + + + + + + + + + + + + [ +.t.x u.v.+ + + + + + + + + + + + +                           ",
"                            . + + + + + + + + + + + + + + + + + + + + s w.x.+ + + + + + + + + + + +                             ",
"                                . + + + + + + + + + + + + + + + + + + + + + + + + + + + + + + +                                 ",
"                                    . + + + + + + + + + + + + + + + + + + + + + + + + + + + s                                   ",
"                                        . + + + + + + + + + + + + + + + + + + + + + + +                                         ",
"                                              . + + + + + + + + + + + + + + + + . +                                             ",
"                                                      . . . + + + + . . + +                                                     "};
