/* XPM */
static char * C:\Users\CJ\Downloads\waltercoin\bitcoin16_xpm[] = {
"16 16 67 1",
" 	c None",
".	c #C26F7B",
"+	c #C9727F",
"@	c #D57584",
"#	c #CA727F",
"$	c #C46F7C",
"%	c #C26E7B",
"&	c #C56F7D",
"*	c #C9717F",
"=	c #D77D8A",
"-	c #ECCACE",
";	c #F6E7E9",
">	c #E8BDC2",
",	c #D88390",
"'	c #CB717F",
")	c #C16E7B",
"!	c #DB919B",
"~	c #F8EDEE",
"{	c #FFFFFF",
"]	c #FEFDFD",
"^	c #C5707D",
"/	c #D47584",
"(	c #DA8E99",
"_	c #FCF6F7",
":	c #FEFBFB",
"<	c #DA8D98",
"[	c #BF6E7A",
"}	c #F1D9DB",
"|	c #E2ABB2",
"1	c #C2707D",
"2	c #FDF8F9",
"3	c #E7BBC1",
"4	c #D07482",
"5	c #D8808D",
"6	c #E9C3C7",
"7	c #DC939E",
"8	c #E5B3BA",
"9	c #C2707C",
"0	c #EBC9CD",
"a	c #FBF3F4",
"b	c #D67C8A",
"c	c #C8727E",
"d	c #C06D7A",
"e	c #D98894",
"f	c #FDFAFA",
"g	c #FEFBFC",
"h	c #E1A6AD",
"i	c #EED1D5",
"j	c #E5B4BA",
"k	c #C16E7A",
"l	c #DB8F9A",
"m	c #EBC8CC",
"n	c #FAF1F2",
"o	c #D57685",
"p	c #C6707D",
"q	c #C9717E",
"r	c #DFA2AA",
"s	c #EFD4D7",
"t	c #FCF8F9",
"u	c #F2DCDF",
"v	c #CB7280",
"w	c #C36E7B",
"x	c #D67A88",
"y	c #E3B0B7",
"z	c #E1A6AE",
"A	c #C36F7C",
"B	c #C56F7C",
"     .+@@#$     ",
"   %@@@@@@@@&   ",
"  *@@@=-;>,@@'  ",
" )@@@!~{{{]-@@^ ",
" /@@(_{{{{{:<@@ ",
"[@@@}{{{{{{{|@@$",
"1@@@2{{{{{{{3@@+",
"4@@5{{{{{{{{6@@@",
"4@@7{{{{{{{{8@@@",
"9@@0{{{{{{{ab@@c",
"d@ef{{{{{{gh@@@$",
" /i{{{{{{{j@@@@ ",
" klmn{{{{fo@@@p ",
"  q@@rst{u@@@v  ",
"   w@@@xyz@@p   ",
"     Ac@@#B     "};
